<svg width="20" height="21" viewBox="0 0 20 21" fill="none" xmlns="http://www.w3.org/2000/svg">
<path fill-rule="evenodd" clip-rule="evenodd" d="M10.0003 2.79175C14.257 2.79175 17.7087 6.24341 17.7087 10.5001C17.7087 14.7567 14.257 18.2084 10.0003 18.2084C5.74282 18.2084 2.29199 14.7567 2.29199 10.5001C2.29199 6.24341 5.74282 2.79175 10.0003 2.79175Z" stroke="#2649E6" stroke-linecap="round" stroke-linejoin="round"/>
<path d="M6.26738 11.4977C5.71654 11.4977 5.26904 11.0502 5.26904 10.5002C5.26904 9.95016 5.71654 9.50183 6.26738 9.50183C6.81821 9.50183 7.26571 9.95016 7.26571 10.5002C7.26571 11.0502 6.81821 11.4977 6.26738 11.4977Z" fill="#2649E6"/>
<path d="M10.0003 11.4977C9.44945 11.4977 9.00195 11.0502 9.00195 10.5002C9.00195 9.95016 9.44945 9.50183 10.0003 9.50183C10.5511 9.50183 10.9986 9.95016 10.9986 10.5002C10.9986 11.0502 10.5511 11.4977 10.0003 11.4977Z" fill="#2649E6"/>
<path d="M13.7327 11.4977C13.1819 11.4977 12.7344 11.0502 12.7344 10.5002C12.7344 9.95016 13.1819 9.50183 13.7327 9.50183C14.2835 9.50183 14.731 9.95016 14.731 10.5002C14.731 11.0502 14.2835 11.4977 13.7327 11.4977Z" fill="#2649E6"/>
</svg>
